<svg width="27" height="27" viewBox="3 0 27 27" fill="none" xmlns="http://www.w3.org/2000/svg">
<path d="M13.5005 3.68164C10.8341 3.68164 10.4995 3.6933 9.45222 3.74096C8.40703 3.78882 7.6936 3.9543 7.06934 4.1971C6.42361 4.44787 5.87586 4.78332 5.33014 5.32925C4.78402 5.87498 4.44858 6.42275 4.197 7.0683C3.9536 7.69278 3.78792 8.40644 3.74087 9.45125C3.69403 10.4985 3.68176 10.8334 3.68176 13.4998C3.68176 16.1663 3.69363 16.4999 3.74108 17.5472C3.78915 18.5924 3.95462 19.3058 4.1972 19.9301C4.44817 20.5759 4.78362 21.1236 5.32953 21.6694C5.87504 22.2155 6.42279 22.5518 7.06811 22.8025C7.69278 23.0453 8.40641 23.2108 9.45141 23.2587C10.4986 23.3063 10.8331 23.318 13.4992 23.318C16.1658 23.318 16.4994 23.3063 17.5467 23.2587C18.5919 23.2108 19.3061 23.0453 19.9308 22.8025C20.5763 22.5518 21.1232 22.2155 21.6687 21.6694C22.2149 21.1236 22.5503 20.5759 22.8019 19.9303C23.0432 19.3058 23.2089 18.5922 23.258 17.5474C23.3051 16.5001 23.3173 16.1663 23.3173 13.4998C23.3173 10.8334 23.3051 10.4987 23.258 9.45146C23.2089 8.40623 23.0432 7.69278 22.8019 7.0685C22.5503 6.42275 22.2149 5.87498 21.6687 5.32925C21.1226 4.78312 20.5765 4.44766 19.9302 4.1971C19.3043 3.9543 18.5904 3.78882 17.5452 3.74096C16.498 3.6933 16.1646 3.68164 13.4974 3.68164H13.5005ZM12.6197 5.45096C12.8811 5.45055 13.1728 5.45096 13.5005 5.45096C16.1218 5.45096 16.4325 5.46037 17.4677 5.50741C18.425 5.55119 18.9445 5.71114 19.2906 5.84553C19.7487 6.02348 20.0754 6.23621 20.4188 6.57984C20.7624 6.92348 20.9751 7.25075 21.1535 7.70894C21.2879 8.05462 21.448 8.57416 21.4916 9.53144C21.5387 10.5664 21.5489 10.8773 21.5489 13.4976C21.5489 16.1178 21.5387 16.4287 21.4916 17.4637C21.4478 18.421 21.2879 18.9405 21.1535 19.2862C20.9756 19.7444 20.7624 20.0706 20.4188 20.4141C20.0752 20.7577 19.7489 20.9704 19.2906 21.1484C18.9449 21.2834 18.425 21.4429 17.4677 21.4867C16.4327 21.5338 16.1218 21.544 13.5005 21.544C10.8789 21.544 10.5682 21.5338 9.53322 21.4867C8.57598 21.4425 8.05645 21.2826 7.71016 21.1482C7.252 20.9702 6.92473 20.7575 6.58111 20.4139C6.23748 20.0702 6.02476 19.7438 5.8464 19.2854C5.71202 18.9397 5.55186 18.4202 5.5083 17.4629C5.46125 16.4279 5.45185 16.117 5.45185 13.4951C5.45185 10.8733 5.46125 10.564 5.5083 9.52898C5.55207 8.57171 5.71202 8.05216 5.8464 7.70607C6.02435 7.24789 6.23748 6.92062 6.58111 6.57698C6.92473 6.23334 7.252 6.02062 7.71016 5.84225C8.05624 5.70725 8.57598 5.54771 9.53322 5.50373C10.4389 5.46282 10.7899 5.45055 12.6197 5.4485V5.45096ZM18.7412 7.08119C18.0907 7.08119 17.563 7.6083 17.563 8.25896C17.563 8.90941 18.0907 9.43714 18.7412 9.43714C19.3916 9.43714 19.9193 8.90941 19.9193 8.25896C19.9193 7.6085 19.3916 7.08078 18.7412 7.08078V7.08119ZM13.5005 8.45778C10.7161 8.45778 8.45857 10.7153 8.45857 13.4998C8.45857 16.2843 10.7161 18.5408 13.5005 18.5408C16.2849 18.5408 18.5415 16.2843 18.5415 13.4998C18.5415 10.7153 16.2847 8.45778 13.5003 8.45778H13.5005ZM13.5005 10.2271C15.3078 10.2271 16.7731 11.6923 16.7731 13.4998C16.7731 15.3072 15.3078 16.7725 13.5005 16.7725C11.693 16.7725 10.2278 15.3072 10.2278 13.4998C10.2278 11.6923 11.693 10.2271 13.5005 10.2271Z" fill="#BEBEBE"/>
</svg>
