<svg width="27" height="27" viewBox="0 0 27 28" fill="none" xmlns="http://www.w3.org/2000/svg">
<path d="M3.93999 10.8408C3.93999 9.67584 3.94055 8.84492 3.99459 8.19428C4.04792 7.55202 4.14972 7.14837 4.31716 6.82605C4.63499 6.21419 5.13387 5.71531 5.74573 5.39748C6.06805 5.23004 6.47169 5.12825 7.11396 5.07491C7.7646 5.02088 8.59552 5.02031 9.76049 5.02031H16.1595C17.3245 5.02031 18.1554 5.02088 18.806 5.07491C19.4483 5.12825 19.8519 5.23004 20.1743 5.39748C20.7861 5.71531 21.285 6.21419 21.6028 6.82605C21.7703 7.14837 21.8721 7.55202 21.9254 8.19428C21.9794 8.84492 21.98 9.67584 21.98 10.8408V17.2398C21.98 18.4048 21.9794 19.2357 21.9254 19.8863C21.8721 20.5286 21.7703 20.9323 21.6028 21.2546C21.285 21.8664 20.7861 22.3653 20.1743 22.6831C19.8519 22.8506 19.4483 22.9524 18.806 23.0057C18.1554 23.0597 17.3245 23.0603 16.1595 23.0603H9.76049C8.59552 23.0603 7.7646 23.0597 7.11396 23.0057C6.47169 22.9524 6.06805 22.8506 5.74573 22.6831C5.13387 22.3653 4.63499 21.8664 4.31716 21.2546C4.14972 20.9323 4.04792 20.5286 3.99459 19.8863C3.94055 19.2357 3.93999 18.4048 3.93999 17.2398V10.8408Z" stroke="#BEBEBE" stroke-width="1.4"/>
<path d="M7.92131 11.2636C8.71734 11.2636 9.36265 10.6762 9.36265 9.95162C9.36265 9.22704 8.71734 8.63965 7.92131 8.63965C7.12529 8.63965 6.47998 9.22704 6.47998 9.95162C6.47998 10.6762 7.12529 11.2636 7.92131 11.2636Z" fill="#BEBEBE"/>
<path d="M10.6827 12.2332H13.0714V13.2293C13.0714 13.2293 13.7196 12.0492 15.4834 12.0492C17.0567 12.0492 18.36 12.7547 18.36 14.9051V19.4396H15.8846V15.4545C15.8846 14.186 15.1405 14.0465 14.5736 14.0465C13.397 14.0465 13.1956 14.9703 13.1956 15.62V19.4396H10.6827V12.2332Z" fill="#BEBEBE"/>
<path d="M6.66487 12.2332H9.17776V19.4396H6.66487V12.2332Z" fill="#BEBEBE"/>
</svg>
