<svg width="33" height="33" viewBox="0 0 33 33" fill="none" xmlns="http://www.w3.org/2000/svg">
<path d="M22.0169 17.7578L27.3503 12.4245V5.75781H20.6836L15.3503 11.0911M22.0169 17.7578V23.0911L16.6836 27.0911L15.3503 21.7578M22.0169 17.7578L15.3503 21.7578M15.3503 21.7578L14.0169 23.0911H10.0169V19.0911L11.3503 17.7578M15.3503 21.7578L18.0169 15.0911L11.3503 17.7578M11.3503 17.7578L6.01693 16.4245L10.0169 11.0911H15.3503M11.3503 17.7578L15.3503 11.0911M22.0169 11.0911H22.0289M12.6836 27.0911L11.3503 28.4245M7.35026 25.7578L6.01693 27.0911M6.01693 20.4245L4.68359 21.7578" stroke="#fff" stroke-width="3" stroke-linecap="round" stroke-linejoin="round"/>
</svg>
