<svg width="33" height="33" viewBox="0 0 33 33" fill="none" xmlns="http://www.w3.org/2000/svg">
<path d="M22.6225 20.8094C23.4281 20.5651 24.3733 20.4245 25.3843 20.4245C28.3298 20.4245 30.7176 21.6184 30.7176 23.0911C30.7176 24.5639 28.3298 25.7578 25.3843 25.7578C24.3733 25.7578 23.4281 25.6172 22.6225 25.3729M22.6225 20.8094C21.1775 19.7709 18.773 19.0911 16.0509 19.0911C13.3289 19.0911 10.9244 19.7709 9.47935 20.8094M22.6225 20.8094C23.523 21.4565 24.0509 22.243 24.0509 23.0911C24.0509 23.9393 23.523 24.7257 22.6225 25.3729M22.6225 25.3729C21.1775 26.4114 18.773 27.0911 16.0509 27.0911C13.3289 27.0911 10.9244 26.4114 9.47935 25.3729M9.47935 20.8094C8.67379 20.5651 7.72855 20.4245 6.71761 20.4245C3.77209 20.4245 1.38428 21.6184 1.38428 23.0911C1.38428 24.5639 3.77209 25.7578 6.71761 25.7578C7.72855 25.7578 8.67379 25.6172 9.47935 25.3729M9.47935 20.8094C8.57886 21.4565 8.05094 22.243 8.05094 23.0911C8.05094 23.9393 8.57886 24.7257 9.47935 25.3729M20.0509 9.75781C20.0509 11.967 18.2601 13.7578 16.0509 13.7578C13.8418 13.7578 12.0509 11.967 12.0509 9.75781C12.0509 7.54867 13.8418 5.75781 16.0509 5.75781C18.2601 5.75781 20.0509 7.54867 20.0509 9.75781ZM28.0509 13.7578C28.0509 15.2306 26.857 16.4245 25.3843 16.4245C23.9115 16.4245 22.7176 15.2306 22.7176 13.7578C22.7176 12.2851 23.9115 11.0911 25.3843 11.0911C26.857 11.0911 28.0509 12.2851 28.0509 13.7578ZM9.38428 13.7578C9.38428 15.2306 8.19037 16.4245 6.71761 16.4245C5.24485 16.4245 4.05094 15.2306 4.05094 13.7578C4.05094 12.2851 5.24485 11.0911 6.71761 11.0911C8.19037 11.0911 9.38428 12.2851 9.38428 13.7578Z" stroke="#fff" stroke-width="3"/>
</svg>
