<svg width="47" height="43" viewBox="0 0 47 43" fill="none" xmlns="http://www.w3.org/2000/svg">
<path fill-rule="evenodd" clip-rule="evenodd" d="M34.8161 42.043H29.1057H23.2364H19.603C18.3682 42.043 17.3671 41.0419 17.3671 39.807V38.4096C17.3671 38.3853 17.3675 38.3612 17.3683 38.3371C17.3654 38.357 17.3626 38.3765 17.3601 38.3954C17.2273 36.7395 15.9347 36.2573 15.1731 36.1735C15.2963 36.1691 15.4137 36.1565 15.5255 36.1366C15.4326 36.1483 15.338 36.1544 15.2419 36.1544H13.8445C12.6096 36.1544 11.6085 35.1533 11.6085 33.9185V32.5096C11.605 32.5327 11.6018 32.5552 11.5989 32.5771C11.4661 30.9211 10.0566 30.4364 9.29499 30.3526H7.95956C6.72266 30.3526 5.71996 29.3499 5.71996 28.113V24.4737V24.464H2.23584C1.00098 24.464 -8.39233e-05 23.463 -8.39233e-05 22.2281V20.8306C-8.39233e-05 19.5958 1.00098 18.5947 2.23584 18.5947H5.71996V15.1143C5.71996 13.8774 6.74976 12.8747 8.02009 12.8747H9.29499C10.8246 12.8203 11.5785 11.1598 11.5989 10.3942V10.3324V9.23533C11.5989 7.99844 12.6016 6.99574 13.8385 6.99574H15.2382C16.0978 6.99574 16.8442 7.47996 17.2197 8.19049C16.766 7.29587 15.8407 6.9929 15.2534 6.92824C16.5951 6.88054 17.2242 5.6549 17.3668 4.84059C17.3577 4.75874 17.3531 4.67557 17.3531 4.5913V3.19385C17.3531 1.95898 18.3541 0.95792 19.589 0.95792H23.2224V6.82723H19.589L19.5783 6.8272L19.5669 6.82712C19.5582 6.82703 19.5495 6.8269 19.5408 6.82672C19.6258 6.84139 19.7066 6.8488 19.7817 6.8488C18 7.05598 17.5687 8.47494 17.4778 9.1527L17.4773 9.14595L17.4763 9.13393L17.4754 9.12377L17.4748 9.11677C17.4768 9.15603 17.4778 9.19556 17.4778 9.23533V12.8747V18.7536V24.6325H17.4682V30.2851H17.4778V33.9185C17.4778 34.0895 17.4586 34.2561 17.4222 34.4162C17.7244 35.6432 18.823 36.1595 19.5471 36.1595C19.4805 36.1673 19.416 36.1766 19.3535 36.1874C19.4354 36.1783 19.5187 36.1737 19.603 36.1737H23.2364H29.1057H34.8161H34.975H38.4495L38.4511 36.1737C38.4242 36.17 38.3978 36.1668 38.3719 36.164C40.0852 36.1056 40.8575 34.7858 40.8347 34.019C40.8437 34.1249 40.8581 34.2262 40.8774 34.3229C40.8556 34.1978 40.8443 34.0691 40.8443 33.9377V30.3043H46.7136V33.9377C46.7136 35.1726 45.7126 36.1737 44.4777 36.1737H43.1388C41.3539 36.4085 40.8175 37.7123 40.6854 38.4402V39.807C40.6854 41.0419 39.6844 42.043 38.4495 42.043H34.975H34.8161ZM11.5989 27.9696V28.0303C11.5989 28.0304 11.5989 28.0306 11.5989 28.0307V27.9692C11.5989 27.9694 11.5989 27.9695 11.5989 27.9696ZM11.5989 27.9694C11.5989 27.9693 11.5989 27.9693 11.5989 27.9692V24.6325L11.5989 27.9694ZM44.4777 18.5272C45.7126 18.5272 46.7136 17.5262 46.7136 16.2913V12.6579H40.8443V16.2913C40.8443 16.3731 40.8487 16.4538 40.8573 16.5333C40.7779 17.2943 40.1297 18.4784 38.6851 18.5297C39.4467 18.6136 40.7394 19.0957 40.8721 20.7517C40.9617 20.0835 41.2686 18.761 42.9846 18.5252C43.0163 18.5265 43.0482 18.5272 43.0802 18.5272H44.4777ZM46.7136 30.3043H40.8443V26.671C40.8443 26.6417 40.8449 26.6126 40.846 26.5837C40.697 25.0732 39.5613 24.5533 38.8003 24.4269C38.7371 24.4323 38.673 24.435 38.6084 24.435H34.975V18.5657H38.6084C39.8432 18.5657 40.8443 19.5668 40.8443 20.8016V22.1991C40.8443 22.34 40.8313 22.4778 40.8064 22.6115C40.8352 22.4751 40.8475 22.3469 40.8443 22.2341C40.9701 23.7713 42.1928 24.4351 42.9964 24.4351L42.9848 24.4364L42.9769 24.4374C43.0111 24.4358 43.0456 24.435 43.0802 24.435H44.4777C45.7126 24.435 46.7136 25.4361 46.7136 26.671V30.3043ZM40.8443 9.02453V12.6579H46.7136V9.02453C46.7136 7.78966 45.7126 6.7886 44.4777 6.7886H43.0802C42.9718 6.7886 42.8651 6.79633 42.7607 6.81126C41.9715 6.70287 40.945 6.02737 40.8303 4.62594C40.8336 4.73816 40.8214 4.86557 40.7929 5.00111C40.8175 4.86826 40.8303 4.73128 40.8303 4.5913V3.19385C40.8303 1.95898 39.8293 0.95792 38.5944 0.95792H34.961V6.82723H38.5944C38.6595 6.82723 38.724 6.82444 38.7877 6.81899C39.5585 6.94737 40.7126 7.4795 40.8373 9.03491C40.8397 9.01748 40.8421 8.99962 40.8447 8.98136C40.8445 8.99572 40.8443 9.01011 40.8443 9.02453ZM29.1153 24.435H34.975V18.5657H29.1153H29.1057H25.4819C24.247 18.5657 23.246 19.5668 23.246 20.8016V22.1991C23.246 23.434 24.247 24.435 25.4819 24.435H29.1057H29.1153ZM34.961 6.82723H29.0917V0.95792H34.961V6.82723ZM23.2224 6.82723H29.0917V0.95792H23.2224V6.82723Z" fill="url(#paint0_linear_417_1148)"/>
<defs>
<linearGradient id="paint0_linear_417_1148" x1="34.1175" y1="0.890414" x2="34.1175" y2="42.043" gradientUnits="userSpaceOnUse">
<stop stop-color="#F45C0D"/>
<stop offset="1" stop-color="#6B63FF"/>
</linearGradient>
</defs>
</svg>
