<svg width="181" height="27" viewBox="0 0 181 27" fill="none" xmlns="http://www.w3.org/2000/svg">
<path fill-rule="evenodd" clip-rule="evenodd" d="M11.5112 0H7.77804H7.67416H5.40271C4.59541 0 3.94096 0.654445 3.94096 1.46174V2.3553C3.85461 2.83116 3.50395 3.68359 2.33703 3.83709H1.46174C0.654445 3.83709 0 4.49153 0 5.29883V7.67415V7.67417V10.0495C0 10.8568 0.654445 11.5112 1.46174 11.5112H2.37534C2.39806 11.5112 2.42066 11.5107 2.44313 11.5097C2.43881 11.5102 2.43449 11.5107 2.43015 11.5112C2.95546 11.5112 3.75485 11.9452 3.83707 12.9501C3.83497 12.8763 3.84303 12.7924 3.86194 12.7032C3.84561 12.7906 3.83708 12.8808 3.83708 12.973V13.8866C3.83708 14.6939 4.49153 15.3483 5.29883 15.3483H7.67415H7.67416H11.5112V11.5113H7.67416H7.67415H5.29883C5.25655 11.5113 5.2147 11.5131 5.17334 11.5166C4.67588 11.434 3.93344 11.0941 3.83598 10.1067C3.83671 10.0877 3.83708 10.0686 3.83708 10.0495V7.67417V7.67415V5.29883C3.83708 5.21295 3.82967 5.12881 3.81547 5.04699C3.82806 5.11026 3.83747 5.17646 3.84338 5.24569C3.82844 4.74442 4.33338 3.88157 5.45344 3.84338C5.43649 3.84159 5.41922 3.83949 5.40168 3.83708L5.40271 3.83708H7.67416H7.77804H11.5112H15.3483H17.7236C17.7788 3.83708 17.8332 3.83402 17.8868 3.82808C17.8459 3.83516 17.8037 3.84127 17.7602 3.84633C18.2745 3.84633 19.0777 4.24474 19.1884 5.20444C19.1864 5.23565 19.1854 5.26712 19.1854 5.29883V6.21242C19.1854 7.01972 19.8398 7.67417 20.6471 7.67417H21.5607C22.368 7.67417 23.0225 7.01972 23.0225 6.21242V5.29883C23.0225 4.49153 22.368 3.83709 21.5607 3.83709H20.6471C20.6351 3.83709 20.6231 3.83723 20.6111 3.83752L20.6197 3.83719C20.1218 3.78238 19.2768 3.46719 19.19 2.38458C19.1883 2.39697 19.1865 2.40969 19.1846 2.42273C19.1851 2.40699 19.1854 2.39119 19.1854 2.37533V1.46174C19.1854 0.654445 18.5309 0 17.7236 0H15.3483H11.5112ZM0.00913915 20.6472C0.00913915 19.8399 0.663585 19.1854 1.47088 19.1854H2.38447C3.19177 19.1854 3.84622 19.8399 3.84622 20.6472V21.5608C3.84622 21.5799 3.84585 21.599 3.84512 21.618C3.94251 22.6049 4.68416 22.945 5.18162 23.0278C5.22326 23.0242 5.2654 23.0224 5.30796 23.0224H7.6833H11.5204H15.3575H17.7328C17.8313 23.0224 17.9275 23.0322 18.0206 23.0507C17.9326 23.0317 17.8477 23.0224 17.7693 23.0224C18.9342 22.887 19.19 21.9809 19.19 21.5607C19.1916 21.5813 19.1936 21.6017 19.1958 21.6219C19.1949 21.6016 19.1945 21.5812 19.1945 21.5608V19.1854H23.0316V21.5608C23.0316 22.3681 22.3772 23.0225 21.5699 23.0225H20.6563C20.6447 23.0225 20.6332 23.0224 20.6217 23.0221L20.6243 23.0224C19.5965 23.0589 19.1808 23.9634 19.1945 24.443L19.1936 24.4321C19.1942 24.4494 19.1945 24.4667 19.1945 24.4842V25.3978C19.1945 26.2051 18.5401 26.8595 17.7328 26.8595H15.3575H11.5204H7.6833H5.30796C4.50066 26.8595 3.84622 26.2051 3.84622 25.3978V24.4842C3.84622 24.3926 3.85463 24.3031 3.87071 24.2162C3.85207 24.3049 3.84412 24.3882 3.84621 24.4615C3.76399 23.4566 2.9646 23.0226 2.43928 23.0226C2.44405 23.0221 2.4488 23.0215 2.45353 23.0209C2.43065 23.022 2.40762 23.0225 2.38447 23.0225H1.47088C0.663585 23.0225 0.00913915 22.3681 0.00913915 21.5608V20.6472ZM17.7236 11.5113H15.3483H11.5112V15.3483H15.3483H17.7236C17.7463 15.3483 17.7688 15.3478 17.7912 15.3468C17.787 15.3473 17.7827 15.3478 17.7785 15.3483C18.2916 15.3483 19.0751 15.7712 19.1877 16.7276C19.1862 16.7549 19.1854 16.7824 19.1854 16.8101V19.1854H23.0225V16.8101C23.0225 16.0028 22.368 15.3483 21.5607 15.3483H20.6471C20.6049 15.3483 20.563 15.3501 20.5217 15.3537C20.0242 15.2711 19.2818 14.9312 19.1843 13.9437C19.185 13.9248 19.1854 13.9057 19.1854 13.8866V12.973C19.1854 12.1657 18.5309 11.5113 17.7236 11.5113Z" fill="url(#paint0_linear_382_1604)"/>
<path fill-rule="evenodd" clip-rule="evenodd" d="M34.6306 1.66323C34.6306 0.860074 33.9795 0.208984 33.1764 0.208984H32.2477C31.4446 0.208984 30.7935 0.860075 30.7935 1.66324V4.04613H30.7935V4.05236V7.78556V7.79186V7.79191V7.88944V10.1748V10.3503C30.697 10.8165 30.3979 11.5138 29.3679 11.6336C29.3862 11.6336 29.4048 11.6341 29.4238 11.6352H28.433C27.6298 11.6352 26.9788 12.2863 26.9788 13.0895V14.0181C26.9788 14.8213 27.6299 15.4724 28.433 15.4724H29.4049C29.3927 15.474 29.3803 15.4755 29.3679 15.477C29.8646 15.477 30.6487 15.8802 30.8021 16.7737C30.7964 16.826 30.7935 16.8791 30.7935 16.9329V19.2181V19.3158L30.7935 22.9577V25.3406C30.7935 26.1437 31.4446 26.7948 32.2477 26.7948H33.1764C33.9795 26.7948 34.6306 26.1437 34.6306 25.3406V22.9577H34.6306V19.3158H34.6306V16.9329C34.6306 16.9055 34.6299 16.8783 34.6284 16.8513C34.6318 16.8781 34.6346 16.9053 34.6369 16.9329L34.6369 16.9327C34.6241 16.4831 35.0102 15.6292 35.9053 15.4941C35.9649 15.4851 36.0269 15.4793 36.0911 15.477C36.0772 15.4754 36.0631 15.4737 36.0487 15.4718C36.0628 15.4722 36.0769 15.4724 36.0911 15.4724H38.474V15.4723H38.4802H42.2134H42.2197H42.3173H42.3236H46.0568H46.0631V15.4724H48.446C48.4625 15.4724 48.479 15.4721 48.4954 15.4716C48.4812 15.4735 48.4668 15.4753 48.4522 15.477C48.9775 15.477 49.8243 15.9279 49.9065 16.9329L49.9065 19.2181V19.3158V22.9577H49.9065V25.3406C49.9065 26.1437 50.5576 26.7948 51.3607 26.7948H52.2894C53.0925 26.7948 53.7436 26.1437 53.7436 25.3406V22.9577H53.7436V19.3158H53.7436V16.9329C53.7436 16.9002 53.7426 16.8677 53.7404 16.8356C53.8188 16.3141 54.2284 15.509 55.1289 15.477C55.1209 15.4761 55.1128 15.4751 55.1046 15.4741C55.1001 15.4736 55.0956 15.473 55.091 15.4724H56.0575C56.8607 15.4724 57.5118 14.8213 57.5118 14.0181V13.0895C57.5118 12.2863 56.8607 11.6352 56.0575 11.6352H55.0932C55.105 11.6346 55.1169 11.634 55.1289 11.6336C54.6489 11.5808 53.8718 11.2859 53.7387 10.2949C53.742 10.2553 53.7436 10.2152 53.7436 10.1748V7.79191H53.7436V4.15H53.7436V1.76711C53.7436 0.963949 53.0925 0.312859 52.2894 0.312859H51.3607C50.5576 0.312859 49.9065 0.96395 49.9065 1.76711V4.15H49.9065V7.79191V7.88944V10.1748L49.9065 10.1812L49.9065 10.181C49.8471 10.6241 49.6171 11.4982 48.4522 11.6336C48.4883 11.6336 48.5259 11.6357 48.5646 11.64C48.5255 11.6368 48.4859 11.6352 48.446 11.6352H46.1607H46.0631H46.0568H42.3236H42.3173H42.2197H42.2134H38.4802H38.474H38.3764H36.0911C36.0747 11.6352 36.0583 11.6355 36.0421 11.636C36.0583 11.635 36.0746 11.6342 36.0911 11.6336H36.0911C35.7177 11.5925 35.1352 11.4049 34.8307 10.857C34.7292 10.6743 34.6586 10.4516 34.6369 10.181C34.6349 10.1952 34.6329 10.21 34.6306 10.2251V10.1885C34.6306 10.184 34.6306 10.1794 34.6306 10.1748V7.79191H34.6306V7.79186L34.6306 7.78556V4.05236V4.04613H34.6306V1.66323ZM49.9105 16.8238C49.9068 16.8621 49.9055 16.8987 49.9065 16.9329C49.9065 16.8962 49.9078 16.8598 49.9105 16.8238ZM53.6746 13.045C53.6742 13.0602 53.6742 13.075 53.6746 13.0895V13.045ZM53.6746 13.0895C53.5924 12.0845 52.7457 11.6336 52.2204 11.6336C52.2327 11.6322 52.2449 11.6306 52.2571 11.629H51.3607C51.3467 11.629 51.3327 11.6288 51.3187 11.6285C51.333 11.6304 51.347 11.6321 51.3607 11.6336C50.3329 11.6701 49.8928 12.6099 49.9065 13.0895C49.9042 13.0619 49.9014 13.0347 49.898 13.0079C49.8995 13.0349 49.9002 13.0621 49.9002 13.0895V14.0181C49.9002 14.0373 49.8999 14.0564 49.8991 14.0753C49.9018 14.0578 49.9043 14.0408 49.9065 14.0244C49.9933 15.107 50.8628 15.4222 51.3607 15.477C51.3535 15.4772 51.3463 15.4775 51.3391 15.4779C51.3299 15.4783 51.3207 15.4788 51.3116 15.4794C51.3279 15.4789 51.3443 15.4786 51.3607 15.4786H52.271C52.2538 15.4775 52.2369 15.477 52.2204 15.477C53.3852 15.3415 53.6153 14.4675 53.6746 14.0244V13.0895ZM32.2477 15.4786L32.2404 15.4786C32.2523 15.478 32.2643 15.4774 32.2764 15.477C31.7785 15.4222 30.9089 15.107 30.8221 14.0244C30.8202 14.0385 30.8182 14.0531 30.8159 14.0681V13.0265C30.8183 13.0472 30.8204 13.0682 30.8221 13.0895C30.8084 12.6099 31.2486 11.6701 32.2764 11.6336C32.264 11.6322 32.2514 11.6307 32.2386 11.629L32.2477 11.629H33.1764C33.1823 11.629 33.1883 11.629 33.1943 11.6289H33.2201C33.2077 11.6306 33.1952 11.6321 33.1826 11.6336H33.1826C33.5766 11.6336 34.1514 11.8872 34.4488 12.438C34.548 12.6216 34.6163 12.8382 34.6369 13.0894V13.0895V14.0181L34.6369 14.0244C34.5775 14.4675 34.3474 15.3415 33.1826 15.477C33.2187 15.477 33.2563 15.4791 33.295 15.4834C33.2559 15.4802 33.2163 15.4786 33.1764 15.4786H32.2477ZM34.6369 13.0893C34.6369 13.0528 34.6382 13.0167 34.6408 12.981C34.6372 13.0191 34.6359 13.0553 34.6369 13.0893Z" fill="url(#paint1_linear_382_1604)"/>
<path fill-rule="evenodd" clip-rule="evenodd" d="M96.1121 1.86831C96.1121 1.06515 95.461 0.414062 94.6578 0.414062H93.7292C92.926 0.414062 92.2749 1.06515 92.2749 1.86831V4.25121H92.2749V4.25744V7.99064V7.99694V7.99698V8.09452V10.3799V10.5554C92.1784 11.0215 91.8794 11.7189 90.8493 11.8387C90.8676 11.8387 90.8863 11.8392 90.9053 11.8403H89.9145C89.1113 11.8403 88.4602 12.4914 88.4602 13.2946V14.2232C88.4602 15.0264 89.1113 15.6775 89.9145 15.6775H90.8863C90.8741 15.6791 90.8618 15.6806 90.8493 15.682C91.3461 15.682 92.1302 16.0852 92.2835 16.9788C92.2779 17.0311 92.2749 17.0842 92.2749 17.1379V19.4232V19.5208L92.2749 23.1627V25.5456C92.2749 26.3488 92.926 26.9999 93.7292 26.9999H94.6578C95.461 26.9999 96.1121 26.3488 96.1121 25.5456V23.1627H96.112V19.5208H96.1121V17.1379C96.1121 17.1106 96.1113 17.0834 96.1098 17.0564C96.1132 17.0832 96.116 17.1103 96.1183 17.1379L96.1183 17.1378C96.1055 16.6881 96.4916 15.8342 97.3867 15.6992C97.4464 15.6901 97.5083 15.6843 97.5726 15.682C97.5587 15.6805 97.5445 15.6788 97.5301 15.6769C97.5442 15.6773 97.5584 15.6775 97.5726 15.6775H99.9554V15.6774H99.9617H103.695H103.701H103.799H103.805H107.538H107.545V15.6775H109.927C109.944 15.6775 109.96 15.6772 109.977 15.6766C109.963 15.6786 109.948 15.6804 109.934 15.682C110.459 15.682 111.306 16.133 111.388 17.1379L111.388 19.4232V19.5208V23.1627H111.388V25.5456C111.388 26.3488 112.039 26.9999 112.842 26.9999H113.771C114.574 26.9999 115.225 26.3488 115.225 25.5456V23.1627H115.225V19.5208H115.225V17.1379C115.225 17.1053 115.224 17.0728 115.222 17.0407C115.3 16.5191 115.71 15.7141 116.61 15.682C116.602 15.6812 116.594 15.6802 116.586 15.6792C116.582 15.6786 116.577 15.6781 116.572 15.6775H117.539C118.342 15.6775 118.993 15.0264 118.993 14.2232V13.2946C118.993 12.4914 118.342 11.8403 117.539 11.8403H116.575C116.586 11.8396 116.598 11.8391 116.61 11.8387C116.13 11.7858 115.353 11.491 115.22 10.5C115.223 10.4604 115.225 10.4203 115.225 10.3799V7.99698H115.225V4.35508H115.225V1.97219C115.225 1.16903 114.574 0.517938 113.771 0.517938H112.842C112.039 0.517938 111.388 1.16903 111.388 1.97219V4.35508H111.388V7.99698V8.09452V10.3799L111.388 10.3863L111.388 10.3861C111.329 10.8292 111.099 11.7032 109.934 11.8387C109.97 11.8387 110.007 11.8408 110.046 11.8451C110.007 11.8419 109.967 11.8403 109.927 11.8403H107.642H107.545H107.538H103.805H103.799H103.701H103.695H99.9617H99.9554H99.8578H97.5725C97.5561 11.8403 97.5398 11.8406 97.5235 11.8411C97.5397 11.8401 97.5561 11.8393 97.5726 11.8387H97.5725C97.1991 11.7976 96.6166 11.61 96.3121 11.0621C96.2106 10.8794 96.14 10.6567 96.1183 10.3861C96.1164 10.4003 96.1143 10.415 96.112 10.4301V10.3936C96.1121 10.389 96.1121 10.3845 96.1121 10.3799V7.99698H96.112V7.99694L96.112 7.99064V4.25744V4.25121H96.1121V1.86831ZM111.392 17.0289C111.388 17.0672 111.387 17.1038 111.388 17.1379C111.388 17.1012 111.389 17.0649 111.392 17.0289ZM115.156 13.25C115.156 13.2653 115.156 13.2801 115.156 13.2946V13.25ZM115.156 13.2946C115.074 12.2896 114.227 11.8387 113.702 11.8387C113.714 11.8372 113.726 11.8357 113.739 11.8341H112.842C112.828 11.8341 112.814 11.8339 112.8 11.8335C112.814 11.8355 112.828 11.8372 112.842 11.8387C111.814 11.8752 111.374 12.8149 111.388 13.2946C111.386 13.2669 111.383 13.2397 111.379 13.213C111.381 13.24 111.382 13.2672 111.382 13.2946V14.2232C111.382 14.2424 111.381 14.2614 111.381 14.2804C111.383 14.2629 111.386 14.2459 111.388 14.2294C111.475 15.312 112.344 15.6272 112.842 15.682C112.835 15.6823 112.828 15.6826 112.821 15.683C112.811 15.6834 112.802 15.6839 112.793 15.6845C112.809 15.684 112.826 15.6837 112.842 15.6837H113.752C113.735 15.6826 113.718 15.682 113.702 15.682C114.867 15.5466 115.097 14.6725 115.156 14.2294V13.2946ZM93.7292 15.6837L93.7218 15.6837C93.7338 15.683 93.7458 15.6825 93.7578 15.682C93.2599 15.6272 92.3904 15.312 92.3036 14.2294C92.3017 14.2436 92.2996 14.2582 92.2973 14.2731V13.2315C92.2998 13.2523 92.3018 13.2733 92.3036 13.2946C92.2899 12.8149 92.73 11.8752 93.7578 11.8387C93.7455 11.8373 93.7329 11.8358 93.7201 11.8341L93.7292 11.8341H94.6578C94.6638 11.8341 94.6698 11.8341 94.6757 11.834H94.7015C94.6891 11.8357 94.6767 11.8372 94.664 11.8387H94.6641C95.058 11.8387 95.6328 12.0923 95.9303 12.6431C96.0294 12.8267 96.0977 13.0433 96.1183 13.2945V13.2946V14.2232L96.1183 14.2294C96.0589 14.6725 95.8289 15.5466 94.6641 15.682C94.7001 15.682 94.7377 15.6842 94.7765 15.6885C94.7373 15.6853 94.6978 15.6837 94.6578 15.6837H93.7292ZM96.1183 13.2943C96.1183 13.2579 96.1196 13.2218 96.1223 13.1861C96.1187 13.2241 96.1173 13.2604 96.1183 13.2943Z" fill="url(#paint2_linear_382_1604)"/>
<path fill-rule="evenodd" clip-rule="evenodd" d="M69.2373 0H72.9705H76.8075H79.1829C79.9902 0 80.6446 0.654445 80.6446 1.46174V2.37533C80.6446 2.39119 80.6444 2.40699 80.6439 2.42273C80.6458 2.40969 80.6475 2.39697 80.6492 2.38458C80.736 3.46719 81.5811 3.78238 82.079 3.83719L82.0703 3.83752C82.0823 3.83723 82.0943 3.83709 82.1064 3.83709H83.0199C83.8272 3.83709 84.4817 4.49153 84.4817 5.29883V6.21242C84.4817 7.01972 83.8272 7.67417 83.0199 7.67417H82.1064C81.2991 7.67417 80.6446 7.01972 80.6446 6.21242V5.29883C80.6446 5.26711 80.6456 5.23562 80.6476 5.2044C80.5369 4.24473 79.7337 3.84633 79.2194 3.84633C79.263 3.84127 79.3051 3.83516 79.346 3.82808C79.2925 3.83402 79.238 3.83708 79.1829 3.83708H76.8075H72.9705H69.2373H69.1334H66.8619L66.8609 3.83708C66.8785 3.83949 66.8957 3.84159 66.9127 3.84338C65.7926 3.88157 65.2877 4.74442 65.3026 5.24569C65.2967 5.17646 65.2873 5.11026 65.2747 5.04699C65.2889 5.12881 65.2963 5.21295 65.2963 5.29883V7.67417H61.4592V5.29883C61.4592 4.49153 62.1137 3.83709 62.921 3.83709H63.7963C64.9632 3.68359 65.3138 2.83116 65.4002 2.3553V1.46174C65.4002 0.654445 66.0546 0 66.8619 0H69.1334H69.2373ZM62.921 15.3735C62.1137 15.3735 61.4592 16.0279 61.4592 16.8352V19.2106H65.2963V16.8352C65.2963 16.7818 65.2934 16.729 65.2878 16.677C65.3397 16.1795 65.7635 15.4054 66.7079 15.3719C66.21 15.317 65.3649 15.0019 65.2781 13.9193C65.2196 14.3561 65.019 15.2207 63.8971 15.3748C63.8764 15.3739 63.8555 15.3735 63.8346 15.3735H62.921ZM61.4592 7.67417H65.2963V10.0495C65.2963 10.0686 65.2959 10.0877 65.2952 10.1067C65.3927 11.0941 66.1351 11.434 66.6326 11.5166C66.6739 11.5131 66.7158 11.5113 66.758 11.5113H69.1334H72.9705V15.3483H69.1334H66.758C65.9507 15.3483 65.2963 14.6939 65.2963 13.8866V12.973C65.2963 12.8809 65.3048 12.7908 65.3211 12.7034C65.3022 12.7926 65.2942 12.8764 65.2963 12.9501C65.2141 11.9452 64.4147 11.5112 63.8894 11.5112C63.8936 11.5107 63.8979 11.5102 63.9021 11.5097C63.8797 11.5107 63.8572 11.5113 63.8346 11.5113H62.921C62.1137 11.5113 61.4592 10.8568 61.4592 10.0495V7.67417ZM65.2963 21.5859V19.2106H61.4592V21.5859C61.4592 22.3932 62.1137 23.0477 62.921 23.0477H63.8346C63.9055 23.0477 63.9752 23.0426 64.0434 23.0329C64.5594 23.1037 65.2305 23.5453 65.3054 24.4615C65.3033 24.3882 65.3113 24.3049 65.3299 24.2162C65.3139 24.3031 65.3054 24.3926 65.3054 24.4842V25.3978C65.3054 26.2051 65.9599 26.8595 66.7672 26.8595H69.1425H72.9796V23.0224H69.1425H66.7672C66.7246 23.0224 66.6825 23.0242 66.6408 23.0278C66.1369 22.9439 65.3824 22.596 65.3009 21.5791C65.2993 21.5905 65.2977 21.6022 65.296 21.6141C65.2962 21.6048 65.2963 21.5954 65.2963 21.5859ZM76.8075 11.5113H79.1829C79.9902 11.5113 80.6446 12.1657 80.6446 12.973V13.8866C80.6446 14.6939 79.9902 15.3483 79.1829 15.3483H76.8075H72.9705V11.5113H76.8075ZM79.192 23.0224H76.8167H72.9796V26.8595H76.8167H79.192C79.9993 26.8595 80.6538 26.2051 80.6538 25.3978V24.4842C80.6538 24.4756 80.6537 24.4671 80.6535 24.4586C80.6545 24.4685 80.6554 24.4784 80.6562 24.4884C80.6425 24.0087 81.0536 23.0952 82.0814 23.0586C82.0574 23.056 82.0327 23.0527 82.0074 23.0488C82.0479 23.0522 82.0889 23.054 82.1304 23.054H83.0589C83.8621 23.054 84.5132 22.4029 84.5132 21.5997V20.6711C84.5132 19.868 83.8621 19.2169 83.0589 19.2169H82.1304C81.3272 19.2169 80.6761 19.868 80.6761 20.6711V21.5997C80.6761 21.6019 80.6761 21.604 80.6761 21.6062C80.6761 21.6061 80.6761 21.6061 80.6761 21.606C80.6192 22.0305 80.4534 22.852 79.4153 23.0394C79.3425 23.0282 79.2679 23.0224 79.192 23.0224Z" fill="url(#paint3_linear_382_1604)"/>
<path fill-rule="evenodd" clip-rule="evenodd" d="M126.784 1.86831C126.784 1.06515 126.133 0.414062 125.33 0.414062H124.401C123.598 0.414062 122.947 1.06515 122.947 1.86831V4.15356H122.94V7.99064H126.778V4.25121H126.784V1.86831ZM144.131 0.517938C144.934 0.517938 145.585 1.16903 145.585 1.97219V4.35508H145.579V7.99694V8.09452V11.7364V11.834V15.4759V15.5735V19.2155H145.579V21.5984C145.579 22.4015 144.928 23.0526 144.125 23.0526H143.215C143.228 23.0543 143.24 23.0558 143.253 23.0572C142.225 23.0937 141.785 24.0334 141.798 24.5131C141.796 24.4854 141.793 24.4582 141.79 24.4314C141.791 24.4585 141.792 24.4857 141.792 24.5131V25.4418C141.792 26.2449 141.141 26.896 140.338 26.896H137.955V26.8959H134.313H134.215H130.574V26.896H128.191C127.388 26.896 126.736 26.2449 126.736 25.4417V24.5131C126.736 24.439 126.742 24.3663 126.753 24.2952C126.576 23.4427 125.815 23.0572 125.33 23.0572C125.344 23.0555 125.358 23.0537 125.372 23.0518C125.356 23.0524 125.34 23.0526 125.323 23.0526H124.395C123.592 23.0526 122.94 22.4015 122.94 21.5984V19.313V19.2155V15.5735V15.4759V11.834V11.7364V7.99694H126.778V11.7364V11.834V15.4759V15.5735V19.2155H126.778V21.5984C126.778 21.6175 126.777 21.6365 126.776 21.6555C126.779 21.638 126.782 21.621 126.784 21.6046C126.871 22.6872 127.74 23.0024 128.238 23.0572C128.226 23.0576 128.214 23.0582 128.202 23.0588H130.476H130.574H134.215H134.313H138.053V23.0589H140.338C140.378 23.0589 140.418 23.0605 140.458 23.0638C140.419 23.0594 140.381 23.0572 140.344 23.0572C141.339 22.9415 141.652 22.2872 141.759 21.8226C141.748 21.7495 141.742 21.6746 141.742 21.5984V19.313V19.2155V15.5735V15.4759V11.834V11.7364V8.09452V7.99694V4.25744H141.748V1.97219C141.748 1.16903 142.399 0.517938 143.202 0.517938H144.131Z" fill="url(#paint4_linear_382_1604)"/>
<path fill-rule="evenodd" clip-rule="evenodd" d="M172.293 26.9023H168.56H164.723H162.348C161.541 26.9023 160.886 26.2479 160.886 25.4406V24.527C160.886 24.5112 160.886 24.4954 160.887 24.4796C160.885 24.4927 160.883 24.5054 160.882 24.5178C160.795 23.4352 159.95 23.12 159.452 23.0652C159.532 23.0623 159.609 23.054 159.682 23.041C159.621 23.0487 159.56 23.0527 159.497 23.0527H158.583C157.776 23.0527 157.121 22.3982 157.121 21.5909V20.6698C157.119 20.685 157.117 20.6997 157.115 20.714C157.028 19.6314 156.107 19.3145 155.609 19.2597H154.736C153.927 19.2597 153.272 18.6042 153.272 17.7956V15.4163V15.41H150.994C150.187 15.41 149.532 14.7556 149.532 13.9483V13.0347C149.532 12.2274 150.187 11.573 150.994 11.573H153.272V9.29761C153.272 8.48899 153.945 7.83347 154.775 7.83347H155.609C156.609 7.79791 157.102 6.71234 157.115 6.21186V6.17147V5.45424C157.115 4.64561 157.771 3.99009 158.579 3.99009H159.494C160.056 3.99009 160.544 4.30665 160.79 4.77116C160.493 4.1863 159.888 3.98823 159.504 3.94596C160.381 3.91478 160.793 3.11351 160.886 2.58115C160.88 2.52765 160.877 2.47327 160.877 2.41818V1.50459C160.877 0.697292 161.531 0.0428467 162.339 0.0428467H164.714V3.87993H162.339L162.332 3.87991L162.324 3.87986C162.319 3.8798 162.313 3.87971 162.307 3.87959C162.363 3.88919 162.416 3.89403 162.465 3.89403C161.3 4.02947 161.018 4.95712 160.959 5.40022L160.958 5.3958L160.958 5.38794L160.957 5.3813L160.957 5.37672C160.958 5.40239 160.959 5.42824 160.959 5.45424V7.83347V11.6768V15.5202H160.952V19.2156H160.959V21.5909C160.959 21.7028 160.946 21.8117 160.922 21.9163C161.12 22.7184 161.838 23.056 162.311 23.056C162.268 23.0611 162.226 23.0672 162.185 23.0743C162.238 23.0683 162.293 23.0653 162.348 23.0653H164.723H168.56H172.293H172.397H174.669L174.67 23.0653C174.652 23.0629 174.635 23.0608 174.618 23.059C175.738 23.0208 176.243 22.1579 176.228 21.6567C176.234 21.7259 176.243 21.7921 176.256 21.8554C176.242 21.7735 176.234 21.6894 176.234 21.6035V19.2282H180.072V21.6035C180.072 22.4108 179.417 23.0653 178.61 23.0653H177.735C176.568 23.2188 176.217 24.0712 176.131 24.547V25.4406C176.131 26.2479 175.476 26.9023 174.669 26.9023H172.397H172.293ZM157.115 17.7018V17.7415C157.115 17.7416 157.115 17.7417 157.115 17.7418V17.7016C157.115 17.7017 157.115 17.7017 157.115 17.7018ZM157.115 17.7017C157.115 17.7016 157.115 17.7016 157.115 17.7016V15.5202L157.115 17.7017ZM178.61 11.5288C179.417 11.5288 180.072 10.8744 180.072 10.0671V7.69176H176.234V10.0671C176.234 10.1206 176.237 10.1733 176.243 10.2253C176.191 10.7228 175.767 11.4969 174.823 11.5305C175.321 11.5853 176.166 11.9005 176.253 12.9831C176.311 12.5463 176.512 11.6816 177.634 11.5275C177.654 11.5284 177.675 11.5288 177.696 11.5288H178.61ZM180.072 19.2282H176.234V16.8528C176.234 16.8337 176.235 16.8147 176.236 16.7958C176.138 15.8083 175.396 15.4684 174.898 15.3858C174.857 15.3893 174.815 15.3911 174.773 15.3911H172.397V11.554H174.773C175.58 11.554 176.234 12.2085 176.234 13.0157V13.9293C176.234 14.0214 176.226 14.1116 176.21 14.1989C176.229 14.1098 176.237 14.026 176.234 13.9522C176.317 14.9572 177.116 15.3911 177.641 15.3911L177.634 15.392L177.629 15.3926C177.651 15.3916 177.674 15.3911 177.696 15.3911H178.61C179.417 15.3911 180.072 16.0455 180.072 16.8528V19.2282ZM176.234 5.31642V7.69176H180.072V5.31642C180.072 4.50912 179.417 3.85468 178.61 3.85468H177.696C177.625 3.85468 177.556 3.85972 177.487 3.86948C176.971 3.79862 176.3 3.35702 176.225 2.44083C176.227 2.51419 176.219 2.59748 176.201 2.68609C176.217 2.59924 176.225 2.5097 176.225 2.41818V1.50459C176.225 0.697292 175.571 0.0428467 174.764 0.0428467H172.388V3.87993H174.764C174.806 3.87993 174.848 3.87811 174.89 3.87454C175.394 3.95847 176.148 4.30636 176.23 5.32321C176.231 5.31181 176.233 5.30014 176.235 5.2882C176.235 5.29759 176.234 5.30699 176.234 5.31642ZM168.567 15.3911H172.397V11.554H168.567H168.56H166.191C165.384 11.554 164.729 12.2085 164.729 13.0157V13.9293C164.729 14.7366 165.384 15.3911 166.191 15.3911H168.56H168.567ZM172.388 3.87993H168.551V0.0428467H172.388V3.87993ZM164.714 3.87993H168.551V0.0428467H164.714V3.87993Z" fill="url(#paint5_linear_382_1604)"/>
<defs>
<linearGradient id="paint0_linear_382_1604" x1="11.5158" y1="0" x2="11.5158" y2="26.8595" gradientUnits="userSpaceOnUse">
<stop stop-color="#F45C0D"/>
<stop offset="1" stop-color="#6B63FF"/>
</linearGradient>
<linearGradient id="paint1_linear_382_1604" x1="42.2686" y1="0.208984" x2="42.2686" y2="26.7948" gradientUnits="userSpaceOnUse">
<stop stop-color="#F45C0D"/>
<stop offset="1" stop-color="#6B63FF"/>
</linearGradient>
<linearGradient id="paint2_linear_382_1604" x1="103.75" y1="0.414062" x2="103.75" y2="26.9999" gradientUnits="userSpaceOnUse">
<stop stop-color="#F45C0D"/>
<stop offset="1" stop-color="#6B63FF"/>
</linearGradient>
<linearGradient id="paint3_linear_382_1604" x1="72.9862" y1="0" x2="72.9862" y2="26.8595" gradientUnits="userSpaceOnUse">
<stop stop-color="#F45C0D"/>
<stop offset="1" stop-color="#6B63FF"/>
</linearGradient>
<linearGradient id="paint4_linear_382_1604" x1="134.263" y1="0.414063" x2="134.263" y2="26.896" gradientUnits="userSpaceOnUse">
<stop stop-color="#F45C0D"/>
<stop offset="1" stop-color="#6B63FF"/>
</linearGradient>
<linearGradient id="paint5_linear_382_1604" x1="171.837" y1="-0.00128563" x2="171.837" y2="26.9023" gradientUnits="userSpaceOnUse">
<stop stop-color="#F45C0D"/>
<stop offset="1" stop-color="#6B63FF"/>
</linearGradient>
</defs>
</svg>
