<svg width="604" height="133" viewBox="0 0 604 133" fill="none" xmlns="http://www.w3.org/2000/svg">
<path fill-rule="evenodd" clip-rule="evenodd" d="M60.1265 24.7441H48.6221H48.302H41.3022C38.8144 24.7441 36.7977 26.7684 36.7977 29.2654V32.0291C36.5316 33.501 35.451 36.1376 31.8549 36.6123H29.1576C26.6698 36.6123 24.6531 38.6366 24.6531 41.1335V48.4805V48.4805V55.8274C24.6531 58.3244 26.6698 60.3487 29.1576 60.3487H31.973C32.043 60.3487 32.1127 60.347 32.1819 60.3439C32.1686 60.3455 32.1553 60.3471 32.1419 60.3487C33.7607 60.3487 36.2242 61.6909 36.4775 64.7992C36.471 64.5709 36.4959 64.3114 36.5541 64.0353C36.5038 64.3058 36.4775 64.5848 36.4775 64.8699V67.6957C36.4775 70.1927 38.4943 72.2169 40.9821 72.2169H48.302H48.302H60.1265V60.3487H48.302H48.302H40.9821C40.8518 60.3487 40.7229 60.3543 40.5954 60.3652C39.0624 60.1097 36.7745 59.0584 36.4742 56.0042C36.4764 55.9456 36.4775 55.8867 36.4775 55.8274V48.4805V48.4805V41.1335C36.4775 40.8679 36.4547 40.6077 36.4109 40.3546C36.4497 40.5503 36.4787 40.755 36.4969 40.9692C36.4509 39.4187 38.007 36.7499 41.4586 36.6318C41.4063 36.6263 41.3531 36.6198 41.2991 36.6123L41.3022 36.6123H48.302H48.6221H60.1265H71.9509H79.2708C79.4408 36.6123 79.6086 36.6029 79.7736 36.5845C79.6476 36.6064 79.5176 36.6253 79.3835 36.6409C80.9683 36.6409 83.4436 37.8732 83.7846 40.8416C83.7785 40.9381 83.7754 41.0355 83.7754 41.1335V43.9593C83.7754 46.4563 85.7922 48.4805 88.28 48.4805H91.0953C93.5831 48.4805 95.5999 46.4563 95.5999 43.9593V41.1335C95.5999 38.6366 93.5831 36.6123 91.0953 36.6123H88.28C88.2428 36.6123 88.2058 36.6128 88.1689 36.6137L88.1956 36.6127C86.6612 36.4431 84.057 35.4682 83.7895 32.1197C83.7844 32.158 83.7789 32.1974 83.7731 32.2377C83.7746 32.189 83.7754 32.1402 83.7754 32.0911V29.2654C83.7754 26.7684 81.7586 24.7441 79.2708 24.7441H71.9509H60.1265ZM24.6812 88.6063C24.6812 86.1093 26.698 84.0851 29.1858 84.0851H32.0012C34.489 84.0851 36.5057 86.1093 36.5057 88.6063V91.4321C36.5057 91.4914 36.5046 91.5504 36.5023 91.6091C36.8025 94.6616 39.0879 95.7134 40.6209 95.9697C40.7492 95.9586 40.8791 95.953 41.0103 95.953H48.3302H60.1546H71.9791H79.299C79.6026 95.953 79.8992 95.9832 80.1859 96.0406C79.9148 95.9816 79.6532 95.953 79.4117 95.953C83.0012 95.534 83.7895 92.7316 83.7895 91.4318C83.7947 91.4957 83.8006 91.5588 83.8074 91.6211C83.8048 91.5584 83.8036 91.4954 83.8036 91.4321V84.0851H95.628V91.4321C95.628 93.9291 93.6113 95.9533 91.1235 95.9533H88.3081C88.2725 95.9533 88.2369 95.9529 88.2015 95.9521L88.2096 95.953C85.0424 96.066 83.7614 98.8635 83.8036 100.347L83.8008 100.313C83.8026 100.367 83.8036 100.42 83.8036 100.474V103.3C83.8036 105.797 81.7868 107.821 79.299 107.821H71.9791H60.1546H48.3302H41.0103C38.5225 107.821 36.5057 105.797 36.5057 103.3V100.474C36.5057 100.191 36.5316 99.9142 36.5812 99.6456C36.5237 99.9196 36.4992 100.177 36.5057 100.404C36.2523 97.2958 33.7889 95.9536 32.1701 95.9536C32.1847 95.9519 32.1994 95.9501 32.214 95.9483C32.1434 95.9516 32.0725 95.9533 32.0012 95.9533H29.1858C26.698 95.9533 24.6812 93.9291 24.6812 91.4321V88.6063ZM79.2708 60.3487H71.9509H60.1265V72.2169H71.9509H79.2708C79.3406 72.2169 79.41 72.2153 79.479 72.2122C79.4659 72.2138 79.4529 72.2153 79.4397 72.2169C81.0212 72.2169 83.4356 73.5248 83.7824 76.4831C83.7778 76.5675 83.7754 76.6526 83.7754 76.7381V84.0851H95.5999V76.7381C95.5999 74.2411 93.5831 72.2169 91.0953 72.2169H88.28C88.1497 72.2169 88.0207 72.2225 87.8933 72.2334C86.3603 71.9779 84.0724 70.9266 83.772 67.8724C83.7743 67.8138 83.7754 67.7549 83.7754 67.6957V64.8699C83.7754 62.3729 81.7586 60.3487 79.2708 60.3487Z" fill="#FAFAFA"/>
<path fill-rule="evenodd" clip-rule="evenodd" d="M131.372 29.8887C131.372 27.4045 129.366 25.3906 126.891 25.3906H124.029C121.554 25.3906 119.547 27.4045 119.547 29.8887V37.259H119.547V37.2783V48.8252V48.8446V48.8448V49.1465V56.2151V56.7579C119.25 58.1998 118.328 60.3568 115.154 60.7272C115.21 60.7272 115.268 60.7289 115.327 60.7323H112.273C109.798 60.7323 107.792 62.7461 107.792 65.2303V68.1026C107.792 70.5868 109.798 72.6007 112.273 72.6007H115.268C115.23 72.6057 115.192 72.6104 115.154 72.6149C116.685 72.6149 119.101 73.862 119.574 76.6257C119.556 76.7874 119.547 76.9516 119.547 77.118V84.1863V84.4883L119.547 95.7528V103.123C119.547 105.607 121.554 107.621 124.029 107.621H126.891C129.366 107.621 131.372 105.607 131.372 103.123V95.7528H131.372V84.4883H131.372V77.118C131.372 77.0334 131.37 76.9493 131.365 76.8658C131.376 76.9486 131.384 77.0326 131.391 77.118L131.391 77.1176C131.352 75.7267 132.542 73.0856 135.3 72.6678C135.484 72.6399 135.675 72.6219 135.873 72.6149C135.83 72.6101 135.786 72.6048 135.742 72.5988C135.785 72.6 135.829 72.6007 135.873 72.6007H143.216V72.6005H143.235H154.739H154.759H155.06H155.079H166.583H166.603V72.6007H173.946C173.997 72.6007 174.048 72.5998 174.098 72.5981C174.054 72.604 174.01 72.6096 173.965 72.6149C175.584 72.6149 178.193 74.0096 178.447 77.118L178.447 84.1863V84.4883V95.7528H178.447V103.123C178.447 105.607 180.453 107.621 182.928 107.621H185.79C188.265 107.621 190.271 105.607 190.271 103.123V95.7528H190.271V84.4883H190.271V77.118C190.271 77.0169 190.268 76.9165 190.261 76.8171C190.503 75.204 191.765 72.7139 194.54 72.6149C194.515 72.6121 194.491 72.6092 194.465 72.6061C194.451 72.6043 194.437 72.6025 194.423 72.6007H197.402C199.877 72.6007 201.883 70.5868 201.883 68.1026V65.2303C201.883 62.7461 199.877 60.7323 197.402 60.7323H194.43C194.467 60.7302 194.503 60.7285 194.54 60.7272C193.061 60.5638 190.666 59.6519 190.256 56.5867C190.266 56.4642 190.271 56.3402 190.271 56.2151V48.8448H190.271V37.5803H190.271V30.2099C190.271 27.7257 188.265 25.7119 185.79 25.7119H182.928C180.453 25.7119 178.447 27.7258 178.447 30.2099V37.5803H178.447V48.8448V49.1465V56.2151L178.447 56.235L178.447 56.2343C178.264 57.6048 177.555 60.3083 173.965 60.7272C174.076 60.7272 174.192 60.7338 174.311 60.747C174.191 60.7373 174.069 60.7323 173.946 60.7323H166.903H166.603H166.583H155.079H155.06H154.759H154.739H143.235H143.216H142.915H135.873C135.822 60.7323 135.772 60.7331 135.722 60.7348C135.771 60.7316 135.822 60.729 135.873 60.7272H135.873C134.722 60.6 132.927 60.0199 131.988 58.3251C131.676 57.7602 131.458 57.0714 131.391 56.2343C131.385 56.2784 131.379 56.3239 131.372 56.3706V56.2576C131.372 56.2434 131.372 56.2293 131.372 56.2151V48.8448H131.372V48.8446L131.372 48.8252V37.2783V37.259H131.372V29.8887ZM178.459 76.7806C178.448 76.8993 178.444 77.0122 178.447 77.118C178.447 77.0045 178.451 76.892 178.459 76.7806ZM190.059 65.0926C190.057 65.1397 190.057 65.1857 190.059 65.2303V65.0926ZM190.059 65.2303C189.805 62.122 187.196 60.7272 185.577 60.7272C185.615 60.7228 185.653 60.7181 185.69 60.7132H182.928C182.885 60.7132 182.842 60.7125 182.798 60.7113C182.842 60.7172 182.886 60.7225 182.928 60.7272C179.761 60.8402 178.404 63.7468 178.447 65.2303C178.44 65.1449 178.431 65.0607 178.42 64.9779C178.425 65.0614 178.427 65.1456 178.427 65.2303V68.1026C178.427 68.1619 178.426 68.2209 178.424 68.2796C178.432 68.2253 178.44 68.1727 178.447 68.1219C178.714 71.4704 181.394 72.4453 182.928 72.6149C182.906 72.6157 182.883 72.6166 182.861 72.6177C182.833 72.619 182.805 72.6206 182.777 72.6225C182.827 72.6208 182.877 72.6199 182.928 72.6199H185.733C185.68 72.6166 185.628 72.6149 185.577 72.6149C189.167 72.1959 189.876 69.4924 190.059 68.1219V65.2303ZM124.029 72.6199L124.006 72.62C124.043 72.6179 124.08 72.6162 124.117 72.6149C122.583 72.4453 119.903 71.4704 119.636 68.1219C119.63 68.1657 119.623 68.2108 119.616 68.2571V65.0354C119.624 65.0996 119.63 65.1646 119.636 65.2303C119.593 63.7468 120.95 60.8402 124.117 60.7272C124.079 60.723 124.04 60.7183 124.001 60.7131L124.029 60.7132H126.891C126.909 60.7132 126.927 60.713 126.946 60.7128H127.025C126.987 60.7179 126.949 60.7227 126.91 60.7272H126.91C128.124 60.7272 129.895 61.5118 130.812 63.2154C131.117 63.7832 131.328 64.4531 131.391 65.2301V65.2303V68.1026L131.391 68.1219C131.208 69.4924 130.499 72.1959 126.91 72.6149C127.021 72.6149 127.137 72.6214 127.256 72.6347C127.136 72.6249 127.014 72.6199 126.891 72.6199H124.029ZM131.391 65.2296C131.391 65.117 131.395 65.0053 131.403 64.8947C131.392 65.0125 131.388 65.1246 131.391 65.2296Z" fill="#FAFAFA"/>
<path fill-rule="evenodd" clip-rule="evenodd" d="M320.835 30.5224C320.835 28.0383 318.829 26.0244 316.354 26.0244H313.492C311.017 26.0244 309.01 28.0383 309.01 30.5224V37.8928H309.01V37.9121V49.459V49.4784V49.4786V49.7802V56.8489V57.3917C308.713 58.8336 307.792 60.9905 304.617 61.361C304.674 61.361 304.731 61.3627 304.79 61.3661H301.736C299.261 61.3661 297.255 63.3799 297.255 65.8641V68.7364C297.255 71.2206 299.261 73.2345 301.736 73.2345H304.731C304.694 73.2394 304.656 73.2442 304.617 73.2487C306.148 73.2487 308.564 74.4958 309.037 77.2595C309.019 77.4212 309.01 77.5854 309.01 77.7518V84.8201V85.1221L309.01 96.3866V103.757C309.01 106.241 311.017 108.255 313.492 108.255H316.354C318.829 108.255 320.835 106.241 320.835 103.757V96.3866H320.835V85.1221H320.835V77.7518C320.835 77.6671 320.833 77.5831 320.828 77.4996C320.839 77.5824 320.847 77.6664 320.854 77.7518L320.854 77.7514C320.815 76.3605 322.005 73.7194 324.763 73.3016C324.947 73.2737 325.138 73.2557 325.336 73.2487C325.293 73.2439 325.249 73.2386 325.205 73.2326C325.248 73.2338 325.292 73.2345 325.336 73.2345H332.679V73.2343H332.698H344.203H344.222H344.523H344.542H356.046H356.066V73.2345H363.409C363.46 73.2345 363.511 73.2336 363.561 73.2319C363.517 73.2378 363.473 73.2434 363.428 73.2487C365.047 73.2487 367.656 74.6434 367.91 77.7518L367.91 84.8201V85.1221V96.3866H367.91V103.757C367.91 106.241 369.916 108.255 372.391 108.255H375.253C377.728 108.255 379.734 106.241 379.734 103.757V96.3866H379.734V85.1221H379.734V77.7518C379.734 77.6507 379.731 77.5503 379.725 77.4509C379.966 75.8378 381.228 73.3477 384.003 73.2487C383.979 73.2459 383.954 73.243 383.928 73.2399C383.915 73.2381 383.901 73.2363 383.886 73.2345H386.865C389.34 73.2345 391.346 71.2206 391.346 68.7364V65.8641C391.346 63.3799 389.34 61.3661 386.865 61.3661H383.893C383.93 61.364 383.966 61.3623 384.003 61.361C382.524 61.1976 380.129 60.2857 379.719 57.2205C379.729 57.098 379.734 56.974 379.734 56.8489V49.4786H379.734V38.2141H379.734V30.8437C379.734 28.3595 377.728 26.3457 375.253 26.3457H372.391C369.916 26.3457 367.91 28.3595 367.91 30.8437V38.2141H367.91V49.4786V49.7802V56.8489L367.91 56.8688L367.91 56.8681C367.727 58.2385 367.018 60.9421 363.428 61.361C363.539 61.361 363.655 61.3676 363.775 61.3808C363.654 61.3711 363.532 61.3661 363.409 61.3661H356.367H356.066H356.046H344.542H344.523H344.222H344.203H332.698H332.679H332.378H325.336C325.285 61.3661 325.235 61.3669 325.185 61.3686C325.235 61.3654 325.285 61.3628 325.336 61.361H325.336C324.185 61.2338 322.39 60.6537 321.452 58.9589C321.139 58.394 320.921 57.7052 320.854 56.8681C320.848 56.9122 320.842 56.9576 320.835 57.0044V56.8914C320.835 56.8772 320.835 56.8631 320.835 56.8489V49.4786H320.835V49.4784L320.835 49.459V37.9121V37.8928H320.835V30.5224ZM367.922 77.4144C367.911 77.533 367.907 77.646 367.91 77.7518C367.91 77.6383 367.914 77.5257 367.922 77.4144ZM379.522 65.7264C379.52 65.7735 379.521 65.8195 379.522 65.8641V65.7264ZM379.522 65.8641C379.268 62.7558 376.659 61.361 375.04 61.361C375.078 61.3566 375.116 61.3519 375.153 61.3469H372.391C372.348 61.3469 372.305 61.3463 372.262 61.3451C372.306 61.351 372.349 61.3563 372.391 61.361C369.224 61.474 367.867 64.3806 367.91 65.8641C367.903 65.7787 367.894 65.6945 367.884 65.6117C367.888 65.6952 367.89 65.7794 367.89 65.8641V68.7364C367.89 68.7957 367.889 68.8547 367.887 68.9134C367.895 68.8591 367.903 68.8065 367.91 68.7557C368.177 72.1042 370.857 73.0791 372.391 73.2487C372.369 73.2495 372.347 73.2504 372.324 73.2515C372.296 73.2528 372.268 73.2544 372.24 73.2562C372.29 73.2546 372.341 73.2537 372.391 73.2537H375.196C375.143 73.2504 375.091 73.2487 375.04 73.2487C378.63 72.8297 379.339 70.1262 379.522 68.7557V65.8641ZM313.492 73.2537L313.469 73.2538C313.506 73.2517 313.543 73.25 313.58 73.2487C312.046 73.0791 309.366 72.1042 309.099 68.7557C309.093 68.7994 309.087 68.8445 309.08 68.8909V65.6692C309.087 65.7334 309.093 65.7984 309.099 65.8641C309.057 64.3806 310.413 61.474 313.58 61.361C313.542 61.3568 313.503 61.3521 313.464 61.3469L313.492 61.3469H316.354C316.372 61.3469 316.39 61.3468 316.409 61.3466H316.488C316.45 61.3517 316.412 61.3565 316.373 61.361H316.373C317.587 61.361 319.358 62.1456 320.275 63.8492C320.58 64.417 320.791 65.0869 320.854 65.8639V65.8641V68.7364L320.854 68.7557C320.671 70.1262 319.962 72.8297 316.373 73.2487C316.484 73.2487 316.6 73.2552 316.719 73.2685C316.599 73.2587 316.477 73.2537 316.354 73.2537H313.492ZM320.854 65.8634C320.854 65.7508 320.858 65.6391 320.867 65.5285C320.855 65.6463 320.851 65.7584 320.854 65.8634Z" fill="#FAFAFA"/>
<path fill-rule="evenodd" clip-rule="evenodd" d="M238.017 24.7441H249.521H261.346H268.666C271.153 24.7441 273.17 26.7684 273.17 29.2654V32.0911C273.17 32.1402 273.169 32.189 273.168 32.2377C273.174 32.1974 273.179 32.158 273.184 32.1197C273.452 35.4682 276.056 36.4431 277.59 36.6127L277.564 36.6137C277.601 36.6128 277.638 36.6123 277.675 36.6123H280.49C282.978 36.6123 284.995 38.6366 284.995 41.1335V43.9593C284.995 46.4563 282.978 48.4805 280.49 48.4805H277.675C275.187 48.4805 273.17 46.4563 273.17 43.9593V41.1335C273.17 41.0354 273.173 40.938 273.179 40.8415C272.838 37.8732 270.363 36.6409 268.778 36.6409C268.912 36.6253 269.042 36.6064 269.168 36.5845C269.003 36.6029 268.836 36.6123 268.666 36.6123H261.346H249.521H238.017H237.697H230.697L230.694 36.6123C230.748 36.6198 230.801 36.6263 230.853 36.6318C227.402 36.7499 225.846 39.4187 225.892 40.9692C225.874 40.755 225.845 40.5503 225.806 40.3546C225.849 40.6077 225.872 40.8679 225.872 41.1335V48.4805H214.048V41.1335C214.048 38.6366 216.065 36.6123 218.552 36.6123H221.25C224.846 36.1376 225.926 33.501 226.192 32.0291V29.2654C226.192 26.7684 228.209 24.7441 230.697 24.7441H237.697H238.017ZM218.552 72.2947C216.065 72.2947 214.048 74.319 214.048 76.8159V84.1629H225.872V76.8159C225.872 76.6506 225.863 76.4873 225.846 76.3266C226.006 74.7878 227.312 72.3935 230.222 72.2897C228.688 72.1201 226.084 71.1452 225.816 67.7967C225.636 69.1479 225.018 71.8221 221.561 72.2988C221.497 72.2961 221.432 72.2947 221.368 72.2947H218.552ZM214.048 48.4805H225.872V55.8275C225.872 55.8867 225.871 55.9456 225.869 56.0043C226.169 59.0584 228.457 60.1097 229.99 60.3652C230.118 60.3543 230.247 60.3487 230.377 60.3487H237.697H249.521V72.2169H237.697H230.377C227.889 72.2169 225.872 70.1927 225.872 67.6957V64.8699C225.872 64.5851 225.899 64.3064 225.949 64.0361C225.891 64.3119 225.866 64.5711 225.872 64.7992C225.619 61.6909 223.155 60.3487 221.537 60.3487C221.55 60.3471 221.563 60.3456 221.576 60.344C221.507 60.3471 221.438 60.3487 221.368 60.3487H218.552C216.065 60.3487 214.048 58.3245 214.048 55.8275V48.4805ZM225.872 91.5099V84.1629H214.048V91.5099C214.048 94.0069 216.065 96.0311 218.552 96.0311H221.368C221.586 96.0311 221.801 96.0155 222.011 95.9853C223.602 96.2045 225.669 97.5704 225.9 100.404C225.894 100.177 225.919 99.9196 225.976 99.6456C225.926 99.9142 225.9 100.191 225.9 100.474V103.3C225.9 105.797 227.917 107.821 230.405 107.821H237.725H249.549V95.953H237.725H230.405C230.274 95.953 230.144 95.9586 230.016 95.9697C228.463 95.7101 226.138 94.6341 225.886 91.4889C225.882 91.5242 225.877 91.5603 225.871 91.5972C225.872 91.5682 225.872 91.5391 225.872 91.5099ZM261.346 60.3487H268.666C271.153 60.3487 273.17 62.3729 273.17 64.8699V67.6957C273.17 70.1927 271.153 72.2169 268.666 72.2169H261.346H249.521V60.3487H261.346ZM268.694 95.953H261.374H249.549V107.821H261.374H268.694C271.182 107.821 273.198 105.797 273.198 103.3V100.474C273.198 100.448 273.198 100.421 273.198 100.395C273.201 100.426 273.203 100.456 273.206 100.487C273.164 99.0037 274.431 96.178 277.598 96.065C277.524 96.0568 277.448 96.0468 277.37 96.0347C277.495 96.0452 277.621 96.0506 277.749 96.0506H280.61C283.085 96.0506 285.092 94.0367 285.092 91.5525V88.6804C285.092 86.1962 283.085 84.1824 280.61 84.1824H277.749C275.274 84.1824 273.267 86.1962 273.267 88.6804V91.5525C273.267 91.5592 273.267 91.5659 273.267 91.5725C273.267 91.5724 273.267 91.5722 273.267 91.572C273.092 92.885 272.581 95.426 269.382 96.0054C269.158 95.9709 268.928 95.953 268.694 95.953Z" fill="#FAFAFA"/>
<path fill-rule="evenodd" clip-rule="evenodd" d="M415.354 30.5224C415.354 28.0383 413.348 26.0244 410.873 26.0244H408.011C405.536 26.0244 403.529 28.0383 403.529 30.5224V37.5908H403.51V49.459H415.335V37.8928H415.354V30.5224ZM468.812 26.3457C471.287 26.3457 473.293 28.3595 473.293 30.8437V38.2141H473.274V49.4784V49.7802V61.0448V61.3466V72.6112V72.913V84.1777H473.274V91.548C473.274 94.0322 471.267 96.046 468.792 96.046H465.989C466.028 96.0512 466.067 96.0559 466.105 96.0601C462.937 96.1731 461.581 99.0797 461.623 100.563C461.616 100.478 461.608 100.394 461.597 100.311C461.602 100.394 461.604 100.479 461.604 100.563V103.436C461.604 105.92 459.598 107.934 457.123 107.934H449.779V107.933H438.556H438.256H427.033V107.934H419.69C417.215 107.934 415.208 105.92 415.208 103.436V100.563C415.208 100.334 415.225 100.109 415.258 99.8892C414.713 97.2525 412.369 96.0601 410.873 96.0601C410.917 96.0549 410.961 96.0494 411.004 96.0435C410.954 96.0452 410.904 96.046 410.853 96.046H407.992C405.517 96.046 403.51 94.0322 403.51 91.548V84.4793V84.1777V72.913V72.6112V61.3466V61.0448V49.4784H415.335V61.0448V61.3466V72.6112V72.913V84.1777H415.335V91.548C415.335 91.6071 415.334 91.666 415.332 91.7246C415.34 91.6704 415.347 91.6179 415.354 91.5672C415.622 94.9157 418.301 95.8906 419.836 96.0601C419.799 96.0614 419.762 96.0631 419.726 96.0652H426.732H427.033H438.256H438.556H450.08V96.0653H457.123C457.247 96.0653 457.371 96.0704 457.493 96.0805C457.372 96.0668 457.254 96.0601 457.142 96.0601C460.207 95.7023 461.172 93.6785 461.502 92.2415C461.467 92.0155 461.449 91.7839 461.449 91.548V84.4793V84.1777V72.913V72.6112V61.3466V61.0448V49.7802V49.4784V37.9121H461.468V30.8437C461.468 28.3595 463.475 26.3457 465.95 26.3457H468.812Z" fill="#FAFAFA"/>
<path fill-rule="evenodd" clip-rule="evenodd" d="M555.598 107.954H544.094H532.27H524.95C522.462 107.954 520.445 105.93 520.445 103.433V100.607C520.445 100.558 520.446 100.509 520.447 100.461C520.442 100.501 520.436 100.54 520.431 100.579C520.163 97.23 517.559 96.2551 516.025 96.0856C516.273 96.0767 516.51 96.0512 516.735 96.011C516.548 96.0347 516.357 96.047 516.164 96.047H513.348C510.86 96.047 508.844 94.0228 508.844 91.5258V88.6768C508.837 88.7236 508.83 88.7692 508.824 88.8133C508.557 85.4648 505.717 84.4848 504.183 84.3153H501.492C499 84.3153 496.98 82.2877 496.98 79.7867V72.4276V72.4082H489.961C487.473 72.4082 485.457 70.3839 485.457 67.887V65.0612C485.457 62.5642 487.473 60.54 489.961 60.54H496.98V53.5023C496.98 51.0012 499.055 48.9736 501.614 48.9736H504.183C507.264 48.8637 508.783 45.506 508.824 43.958V43.833V41.6146C508.824 39.1135 510.844 37.086 513.336 37.086H516.156C517.888 37.086 519.392 38.0651 520.148 39.5018C519.234 37.6929 517.37 37.0802 516.187 36.9495C518.89 36.853 520.157 34.3747 520.444 32.7281C520.426 32.5626 520.417 32.3944 520.417 32.224V29.3983C520.417 26.9013 522.434 24.8771 524.921 24.8771H532.241V36.7452H524.921L524.9 36.7452L524.877 36.745C524.859 36.7448 524.842 36.7446 524.824 36.7442C524.995 36.7739 525.158 36.7888 525.31 36.7888C521.72 37.2078 520.851 40.077 520.668 41.4475L520.667 41.4339L520.665 41.4095L520.663 41.389L520.662 41.3749C520.666 41.4542 520.668 41.5342 520.668 41.6146V48.9736V60.8613V72.7489H520.649V84.1788H520.668V91.5258C520.668 91.8717 520.629 92.2085 520.556 92.5321C521.165 95.0132 523.378 96.0573 524.837 96.0573C524.703 96.073 524.573 96.0919 524.447 96.1138C524.612 96.0954 524.78 96.0859 524.95 96.0859H532.27H544.094H555.598H555.918H562.918L562.921 96.0859C562.867 96.0785 562.814 96.072 562.762 96.0665C566.213 95.9483 567.77 93.2795 567.724 91.7291C567.742 91.9432 567.771 92.148 567.81 92.3436C567.766 92.0906 567.743 91.8303 567.743 91.5647V84.2177H579.567V91.5647C579.567 94.0617 577.551 96.0859 575.063 96.0859H572.366C568.77 96.5607 567.689 99.1972 567.423 100.669V103.433C567.423 105.93 565.406 107.954 562.918 107.954H555.918H555.598ZM508.824 79.4967V79.6195C508.824 79.6197 508.824 79.62 508.824 79.6202V79.496C508.824 79.4962 508.824 79.4964 508.824 79.4967ZM508.824 79.4962C508.824 79.4961 508.824 79.496 508.824 79.496V72.7489L508.824 79.4962ZM575.063 60.4035C577.551 60.4035 579.567 58.3793 579.567 55.8823V48.5353H567.743V55.8823C567.743 56.0476 567.752 56.2109 567.769 56.3716C567.609 57.9104 566.303 60.3047 563.393 60.4086C564.927 60.5781 567.531 61.553 567.799 64.9015C567.979 63.5504 568.598 60.8761 572.055 60.3994C572.119 60.4021 572.183 60.4035 572.247 60.4035H575.063ZM579.567 84.2177H567.743V76.8707C567.743 76.8116 567.744 76.7528 567.746 76.6943C567.446 73.6399 565.158 72.5886 563.625 72.3331C563.498 72.344 563.369 72.3495 563.238 72.3495H555.918V60.4813H563.238C565.726 60.4813 567.743 62.5056 567.743 65.0025V67.8283C567.743 68.1132 567.717 68.3919 567.666 68.6621C567.725 68.3864 567.749 68.1272 567.743 67.899C567.996 71.0074 570.46 72.3496 572.079 72.3496L572.055 72.3523L572.039 72.3543C572.108 72.3511 572.178 72.3495 572.247 72.3495H575.063C577.551 72.3495 579.567 74.3737 579.567 76.8707V84.2177ZM567.743 41.1883V48.5353H579.567V41.1883C579.567 38.6913 577.551 36.6671 575.063 36.6671H572.247C572.029 36.6671 571.814 36.6827 571.604 36.7129C570.014 36.4938 567.946 35.1279 567.715 32.2941C567.721 32.521 567.697 32.7786 567.639 33.0527C567.689 32.784 567.715 32.5071 567.715 32.224V29.3983C567.715 26.9013 565.698 24.8771 563.21 24.8771H555.89V36.7452H563.21C563.341 36.7452 563.471 36.7396 563.6 36.7286C565.152 36.9882 567.478 38.0642 567.729 41.2093C567.734 41.1741 567.738 41.138 567.744 41.1011C567.743 41.1301 567.743 41.1592 567.743 41.1883ZM544.113 72.3495H555.918V60.4813H544.113H544.094H536.793C534.306 60.4813 532.289 62.5056 532.289 65.0025V67.8283C532.289 70.3253 534.306 72.3495 536.793 72.3495H544.094H544.113ZM555.89 36.7452H544.066V24.8771H555.89V36.7452ZM532.241 36.7452H544.066V24.8771H532.241V36.7452Z" fill="#FAFAFA"/>
</svg>
